<svg xmlns="http://www.w3.org/2000/svg" version="1.1" xmlns:xlink="http://www.w3.org/1999/xlink" xmlns:svgjs="http://svgjs.dev/svgjs" width="1000" height="623" viewBox="0 0 1000 623"><g transform="matrix(1,0,0,1,-0.6060606060606233,0.2522267206477409)"><svg viewBox="0 0 396 247" data-background-color="#091820" preserveAspectRatio="xMidYMid meet" height="623" width="1000" xmlns="http://www.w3.org/2000/svg" xmlns:xlink="http://www.w3.org/1999/xlink"><g id="tight-bounds" transform="matrix(1,0,0,1,0.2400000000000091,-0.09999999999999432)"><svg viewBox="0 0 395.52 247.2" height="247.2" width="395.52"><g><svg></svg></g><g><svg viewBox="0 0 395.52 247.2" height="247.2" width="395.52"><g transform="matrix(1,0,0,1,75.54432,89.65119999999999)"><svg viewBox="0 0 244.43135999999998 67.8976" height="67.8976" width="244.43135999999998"><g><svg viewBox="0 0 244.43135999999998 67.8976" height="67.8976" width="244.43135999999998"><g><svg viewBox="0 0 244.43135999999998 67.8976" height="67.8976" width="244.43135999999998"><g><svg viewBox="0 0 244.43135999999998 67.8976" height="67.8976" width="244.43135999999998"><g><svg viewBox="0 0 244.43135999999998 67.8976" height="67.8976" width="244.43135999999998"><g><svg viewBox="0 0 244.43135999999998 67.8976" height="67.8976" width="244.43135999999998"><g transform="matrix(1,0,0,1,0,0)"><svg width="244.43135999999998" viewBox="2.3499999046325684 -35 127.79000091552734 35.5" height="67.8976" data-palette-color="#eef7fc"><path d="M11.3-22.75L11.3-22.75Q5.4-22.75 5.4-18.5L5.4-18.5Q5.4-16.55 6.7-15.75 8-14.95 12.58-14.18 17.15-13.4 19.03-12.05 20.9-10.7 20.9-6.88 20.9-3.05 18.45-1.28 16 0.5 11.25 0.5L11.25 0.5Q8.5 0.5 4.15-0.2L4.15-0.2 2.7-0.4 2.9-3.05Q8.5-2.2 11.5-2.2 14.5-2.2 16.18-3.25 17.85-4.3 17.85-6.8 17.85-9.3 16.48-10.13 15.1-10.95 10.58-11.65 6.05-12.35 4.2-13.65 2.35-14.95 2.35-18.55 2.35-22.15 4.9-23.8 7.45-25.45 11.2-25.45L11.2-25.45Q14.2-25.45 18.7-24.8L18.7-24.8 20.05-24.6 19.95-21.95Q14.6-22.75 11.3-22.75ZM43.5-2.5L43.5-2.5 45-2.65 45.1-0.2Q39.45 0.5 35.55 0.5L35.55 0.5Q30.15 0.45 28-2.7 25.85-5.85 25.85-12.4L25.85-12.4Q25.85-25.5 36.15-25.5L36.15-25.5Q41.1-25.5 43.55-22.68 46-19.85 46-13.65L46-13.65 45.9-11.25 28.9-11.25Q28.9-6.65 30.47-4.42 32.05-2.2 35.87-2.2 39.7-2.2 43.5-2.5ZM28.9-13.75L28.9-13.75 43-13.75Q43-18.7 41.37-20.8 39.75-22.9 36.17-22.9 32.6-22.9 30.75-20.73 28.9-18.55 28.9-13.75ZM55.1-20.7L55.1 0 52.15 0 52.15-25 55.1-25 55.1-23.15Q59.3-25.5 63.25-25.5L63.25-25.5Q68.25-25.5 69.92-22.85 71.6-20.2 71.6-13.15L71.6-13.15 71.6 0 68.6 0 68.6-13Q68.6-18.75 67.5-20.78 66.4-22.8 62.8-22.8L62.8-22.8Q61.05-22.8 59.12-22.28 57.2-21.75 56.15-21.2L56.15-21.2 55.1-20.7ZM86.34-22.75L86.34-22.75Q80.44-22.75 80.44-18.5L80.44-18.5Q80.44-16.55 81.74-15.75 83.04-14.95 87.62-14.18 92.19-13.4 94.07-12.05 95.94-10.7 95.94-6.88 95.94-3.05 93.49-1.28 91.04 0.5 86.29 0.5L86.29 0.5Q83.54 0.5 79.19-0.2L79.19-0.2 77.74-0.4 77.94-3.05Q83.54-2.2 86.54-2.2 89.54-2.2 91.22-3.25 92.89-4.3 92.89-6.8 92.89-9.3 91.52-10.13 90.14-10.95 85.62-11.65 81.09-12.35 79.24-13.65 77.39-14.95 77.39-18.55 77.39-22.15 79.94-23.8 82.49-25.45 86.24-25.45L86.24-25.45Q89.24-25.45 93.74-24.8L93.74-24.8 95.09-24.6 94.99-21.95Q89.64-22.75 86.34-22.75ZM118.54-2.5L118.54-2.5 120.04-2.65 120.14-0.2Q114.49 0.5 110.59 0.5L110.59 0.5Q105.19 0.45 103.04-2.7 100.89-5.85 100.89-12.4L100.89-12.4Q100.89-25.5 111.19-25.5L111.19-25.5Q116.14-25.5 118.59-22.68 121.04-19.85 121.04-13.65L121.04-13.65 120.94-11.25 103.94-11.25Q103.94-6.65 105.52-4.42 107.09-2.2 110.92-2.2 114.74-2.2 118.54-2.5ZM103.94-13.75L103.94-13.75 118.04-13.75Q118.04-18.7 116.42-20.8 114.79-22.9 111.22-22.9 107.64-22.9 105.79-20.73 103.94-18.55 103.94-13.75ZM130.14 0L127.19 0 127.19-25 130.14-25 130.14 0ZM130.14-31.25L127.19-31.25 127.19-35 130.14-35 130.14-31.25Z" opacity="1" transform="matrix(1,0,0,1,0,0)" fill="#eef7fc" class="undefined-text-0" data-fill-palette-color="primary" id="text-0"></path></svg></g></svg></g></svg></g></svg></g></svg></g></svg></g></svg></g><g><path d="M0 123.6c0-68.262 55.338-123.6 123.6-123.6 53.531 0 99.113 34.03 116.294 81.637h-3.261c-17.04-45.883-61.219-78.575-113.033-78.575-66.572 0-120.538 53.967-120.538 120.538 0 66.572 53.967 120.538 120.538 120.538 51.814 0 95.993-32.692 113.033-78.575h3.261c-17.181 47.607-62.764 81.637-116.294 81.637-68.262 0-123.6-55.338-123.6-123.6z" fill="#eef7fc" stroke="transparent" data-fill-palette-color="tertiary"></path></g></svg></g><defs></defs></svg><rect width="395.52" height="247.2" fill="none" stroke="none" visibility="hidden"></rect></g></svg></g></svg>